<?xml version="1.0" encoding="UTF-8" standalone="no"?>
<!-- Generator: Adobe Illustrator 19.2.1, SVG Export Plug-In . SVG Version: 6.00 Build 0)  -->

<svg
   version="1.1"
   id="layer"
   x="0px"
   y="0px"
   viewBox="0 0 652 652"
   style="enable-background:new 0 0 652 652;"
   xml:space="preserve"
   sodipodi:docname="atelier_lyon.svg.2023_03_01_16_53_46.0.svg"
   inkscape:version="1.2.2 (b0a8486541, 2022-12-01)"
   inkscape:export-filename="atelier_lyon_black.svg"
   inkscape:export-xdpi="96"
   inkscape:export-ydpi="96"
   xmlns:inkscape="http://www.inkscape.org/namespaces/inkscape"
   xmlns:sodipodi="http://sodipodi.sourceforge.net/DTD/sodipodi-0.dtd"
   xmlns="http://www.w3.org/2000/svg"
   xmlns:svg="http://www.w3.org/2000/svg"><defs
   id="defs11" /><sodipodi:namedview
   id="namedview9"
   pagecolor="#ffffff"
   bordercolor="#000000"
   borderopacity="0.24705882"
   inkscape:showpageshadow="2"
   inkscape:pageopacity="0"
   inkscape:pagecheckerboard="0"
   inkscape:deskcolor="#d1d1d1"
   showgrid="false"
   inkscape:zoom="2.690184"
   inkscape:cx="273.7731"
   inkscape:cy="393.46751"
   inkscape:window-width="1912"
   inkscape:window-height="1072"
   inkscape:window-x="2"
   inkscape:window-y="2"
   inkscape:window-maximized="1"
   inkscape:current-layer="layer"
   showguides="true" />
<style
   type="text/css"
   id="style2">
	.st0{fill:#D61119;}
</style>


<path
   id="path6"
   style="fill:#ffffff;fill-opacity:1;stroke-width:1.51401"
   class="st0"
   d="M 376.86328 166.45898 C 376.86328 166.45898 375.37818 166.75097 374.07031 167.16211 C 373.05954 167.51494 370.29448 168.36646 368.68945 168.83594 C 367.08445 169.30549 363.36817 170.80869 362.47656 170.98242 C 360.54522 171.36173 360.27825 171.56812 357.57227 172.7168 C 357.57227 172.7168 355.43055 173.59997 354.74609 174.04297 C 354.06164 174.48603 351.89012 175.99342 350.28516 176.46289 C 348.53154 176.96159 346.62908 177.4898 344.45898 178.22461 C 343.59681 178.54828 340.17373 180.7628 338.47852 181.55859 C 337.6163 181.8822 336.60547 182.23438 336.60547 182.23438 C 336.60547 182.23438 337.16527 183.51448 338.23438 183.45898 C 338.23438 183.45898 337.87449 184.76413 336.80273 185.5918 C 335.73095 186.41952 334.50967 187.2762 332.99219 188.19141 C 331.47469 189.10662 329.18262 190.79122 328.52734 191.38281 C 328.52734 191.38281 329.32577 192.30529 330.48242 192.69531 C 330.48242 192.69531 330.80848 192.78571 329.46875 193.82031 C 328.12902 194.85492 325.12298 196.83452 323.7832 197.86914 C 322.41431 198.75516 320.5969 200.50045 319.64453 201.15039 C 318.30482 202.18499 318.15614 202.21321 316.99414 203.36719 C 315.80325 204.37413 316.54688 204.22656 316.54688 204.22656 C 316.54687 204.22656 317.16914 204.25862 318.23828 204.20312 C 319.12966 204.02805 319.8125 204.35742 319.8125 204.35742 C 319.8125 204.35742 320.07727 204.92199 319.45117 205.66211 C 318.82505 206.40226 318.19669 207.91456 316.14062 210.01562 C 315.09802 210.99184 314.38273 212.05889 313.2207 213.21289 C 312.20727 214.33769 311.16074 216.08602 310.77344 216.4707 L 312.31445 217.24805 L 312.3418 218.16797 C 311.83504 218.73038 311.14958 219.17416 310.3457 219.79492 C 309.39322 220.44461 300.41684 223.44177 289.98828 225.33594 C 272.57723 228.60148 267.38609 227.30629 258.38477 228.61133 C 249.38345 229.91641 243.22571 233.13133 235.55078 237.26172 C 234.00416 238.02837 232.93085 238.8559 231.97852 239.50586 C 228.70746 240.91981 225.46647 242.48388 222.58008 244.28516 C 212.28404 250.78187 195.70575 270.85588 190.67578 274.3125 C 185.79438 277.73996 182.67475 278.35108 178.72461 278.66406 C 174.74526 278.82844 173.08398 278.23047 173.08398 278.23047 C 173.08398 278.23047 170.15879 274.32931 167.60938 273.13281 C 164.20043 271.4879 156.42383 270.39258 156.42383 270.39258 C 156.42383 270.39258 156.1695 275.38085 159.59961 279.49023 C 163.79903 284.37431 169.68244 282.90961 172.08594 283.36328 C 176.24027 284.08984 185.83084 284.21133 192.94336 279.57422 C 199.3714 275.38011 205.45046 269.4046 209.94727 265.58984 C 214.47316 261.92361 221.99947 257.82137 228.6875 255.73633 C 228.6238 256.9832 228.41136 258.25914 228.31836 259.35742 C 227.52502 265.53072 222.93453 279.08539 221.85742 281.45703 C 220.69008 284.15507 215.69907 293.31258 214.71484 294.58594 C 213.70142 295.71078 211.26133 297.4242 207.8125 298.71875 C 204.06658 300.07165 193.30664 303.41992 193.30664 303.41992 C 193.30664 303.41992 193.45023 313.57511 192.0918 320.01367 C 191.66727 322.56578 190.25195 327.93359 190.25195 327.93359 C 190.25195 327.93359 195.02221 331.00858 197.29297 335.5 C 198.3276 336.83973 200.19038 339.2499 201.08203 339.07617 L 218.91016 335.57617 C 218.91016 335.57617 219.25193 331.03304 215.60156 330.51562 C 213.49514 330.00361 213.82453 329.32292 209.37305 328.6543 C 207.62209 328.38105 206.61225 327.96157 205.2832 325.9082 C 203.95405 323.85487 203.25391 320.28906 203.25391 320.28906 C 203.25391 320.28906 202.97043 316.48738 204.75586 315.36523 C 206.92861 313.8584 212.5086 314.76812 217.5332 312.85547 C 225.11526 309.82337 235.61848 303.59405 239.16016 301.20117 C 242.28532 299.04445 247.35644 291.87679 248.9668 289.86328 C 250.57719 287.84977 252.42188 287.02539 252.42188 287.02539 C 252.42188 287.02539 255.26505 288.9362 260.6875 292.19141 C 266.25852 295.41745 268.12468 297.05617 270.02148 298.07227 C 271.91829 299.08838 274.40288 301.53209 274.9043 302.51367 C 277.02919 306.26223 277.92578 313.18359 277.92578 313.18359 C 277.92578 313.18359 285.55236 314.30882 288.33789 315.92188 C 291.0942 317.3863 293.66602 321.04688 293.66602 321.04688 L 315.35547 316.78711 C 315.69243 313.78933 313.70506 313.09838 313.17188 312.74023 C 312.10541 312.02393 311.0422 310.53743 308.81641 310.20312 C 300.86304 308.98794 301.21531 309.99712 298.81445 308.77148 C 297.0954 307.87475 293.06402 306.1992 291.88086 304.88867 C 290.6977 303.57812 287.89741 297.18465 286.75977 291.39062 C 286.0595 287.82513 285.2701 284.58597 284.56445 282.56445 C 291.19414 280.18231 301.42174 276.47492 310.29297 278.43555 C 312.0731 278.85742 316.58152 279.82321 321.35938 280.58203 C 322.03846 281.68297 322.65827 283.25981 322.97656 285.66602 C 323.81743 291.51834 319.42383 299.78711 319.42383 299.78711 C 319.42383 299.78711 323.64657 306.36366 324.74219 307.22852 C 325.68927 308.12257 328.77209 309.67751 330.01367 311.28516 C 330.66358 312.23762 331.72656 313.72656 331.72656 313.72656 L 97.355469 359.2832 L 97.107422 375.96094 L 227.2168 350.66992 L 225.83398 433.67773 L 243.70508 430.20508 L 245.41406 347.13281 L 556.29102 286.70508 L 556.51953 270.03125 L 331.83594 313.70508 L 350.44531 310.04883 C 350.44531 310.04883 351.14158 306.5189 348.32422 305.5293 C 347.16755 305.1393 345.89311 304.15384 344.58789 303.79297 C 339.39621 302.49825 338.97687 303.50677 336.72461 302.25195 C 335.361 301.59402 333.91797 298.17383 333.91797 298.17383 C 333.91797 298.17383 341.02028 287.98497 342.2168 285.43555 C 343.77144 282.35291 344.45913 281.13713 345.08789 279.625 C 351.50795 277.74682 358.10827 275.21602 360.22266 273.41211 C 360.90711 272.96907 361.41332 272.40796 361.94922 271.99414 C 362.77958 272.29392 363.46266 272.62233 364.11523 272.80273 C 367.94075 274.21152 377.40561 276.05595 381.02148 277.96875 C 384.63733 279.88157 390.4043 286.46289 390.4043 286.46289 C 390.4043 286.46289 398.38721 287.82651 400.66602 290.00195 C 402.1755 291.4027 409.38867 291.99219 409.38867 291.99219 C 409.38867 291.99219 411.46851 291.58366 414.63867 293.58398 C 417.95742 295.55519 418.34197 295.9432 420.77734 295.77344 C 425.32166 295.34325 432.89844 293.85547 432.89844 293.85547 C 432.89844 293.85547 434.04452 288.69157 430.30664 287.72852 C 426.56873 286.76544 429.27775 284.84492 420.64258 283.30078 C 418.23907 282.84709 414.14289 282.41798 412.60156 281.64062 C 411.06026 280.86331 402.18124 272.5785 397.94727 269.08984 C 393.74248 265.74976 384.74414 257.64062 384.74414 257.64062 L 382.38086 254.24805 L 382.12305 251.36719 C 382.48125 250.83398 382.80983 250.1524 383.16797 249.61914 C 384.09387 248.04863 385.64507 245.73685 386.00586 244.43164 C 386.81773 241.49488 386.89859 244.25846 387.34961 242.62695 C 387.71044 241.3217 389.82485 239.51727 390.74805 238.71875 C 391.52273 237.94943 392.6582 235.875 392.6582 235.875 C 392.6582 235.875 392.86181 236.91478 393.51172 237.86719 C 393.51172 237.86719 394.13869 237.12728 394.91602 235.58594 C 395.69335 234.0446 395.36693 233.95323 396.44141 232.35352 C 397.66442 230.72469 398.0291 227.8758 398.57031 225.91797 C 399.14072 224.10872 399.47018 223.42781 399.70898 223.07227 C 399.70898 223.07227 400.4184 224.32104 401.06836 225.27344 C 401.06836 225.27344 401.78411 224.20746 402.05469 223.22852 C 402.17676 222.27879 402.27018 221.18011 402.66016 220.02344 C 403.05017 218.86675 403.26097 217.59157 403.79688 217.17773 C 404.33277 216.76386 405.22747 215.81567 406.56445 215.55273 C 407.45584 215.3776 408.88024 215.5614 409.97852 215.6543 C 411.22536 215.71801 411.55488 215.03563 412.50195 215.92969 C 413.44898 216.82375 414.57617 217.06641 414.57617 217.06641 C 414.57617 217.06641 414.54774 216.91764 415.35156 216.29688 C 416.15542 215.67611 416.15503 215.67556 416.92969 214.90625 C 417.70434 214.13691 417.49711 213.86917 417.97461 213.1582 C 418.45212 212.44727 418.782 211.7645 418.8457 210.51758 C 418.90901 209.27081 418.19828 208.79493 418.67578 208.08398 C 419.03394 207.55078 420.07265 207.34637 420.4043 205.89258 C 420.5875 204.468 420.4097 204.34765 420.64844 203.99219 C 420.88719 203.63668 420.86133 202.7168 420.86133 202.7168 C 420.86133 202.7168 422.08483 201.08656 422.17773 199.98828 C 422.122 198.91915 422.3313 198.41605 422.68945 197.88281 C 422.68945 197.88281 422.10031 196.45591 419.75781 195.52734 C 419.75781 195.52734 419.34332 194.99144 418.69336 194.03906 C 417.80465 193.44213 415.64062 192.63426 414.57422 191.91797 C 413.50774 191.20165 412.05666 190.09644 411.52344 189.73828 C 410.99022 189.38015 409.62907 187.95198 408.94727 187.62305 C 408.4432 187.41343 407.14269 184.73722 407.08789 184.43945 C 406.88095 184.17148 406.55704 183.30774 405.57812 183.03711 C 405.07409 182.82753 403.59183 182.3489 402.70312 181.75195 C 401.69504 181.33279 399.20703 179.66016 399.20703 179.66016 C 399.20703 179.66016 398.08917 176.33035 396.84766 174.72266 C 395.60614 173.11501 395.34158 172.54982 394.75 171.89453 C 394.1584 171.23924 393.97987 171.12028 393.47852 170.13867 C 393.47852 170.13867 392.29041 170.37336 391.36719 171.17188 C 391.36719 171.17188 388.96564 169.94624 386.47461 169.04688 C 384.01272 168.29601 381.22523 167.45433 380.12695 167.36133 C 379.05783 167.41703 377.57427 166.9365 376.86328 166.45898 z M 517.81055 303.76562 C 514.41177 303.66621 510.63274 304.01949 506.47266 304.82812 L 480.89844 309.79883 L 480.28906 384.2168 L 496.75977 381.01562 L 497.0332 352.93359 L 504.29492 351.52148 L 522.64062 375.98438 L 539.62109 372.68359 L 520.00195 346.57812 C 526.68163 344.1675 531.50803 340.78162 534.48242 336.42188 C 537.51113 331.97742 538.31895 326.11008 536.90234 318.82227 C 535.5413 311.82023 532.19463 307.3558 526.86523 305.42578 C 524.22769 304.41841 521.20933 303.86504 517.81055 303.76562 z M 473.00977 311.33398 L 420.01953 321.63281 L 419.4082 396.05078 L 472.39844 385.75 L 472.46875 370.27734 L 436.05078 377.35547 L 436.20703 362.31055 L 458.4043 357.99414 L 458.47656 342.52148 L 436.27734 346.83594 L 436.41797 333.90625 L 472.83594 326.82617 L 473.00977 311.33398 z M 511.76172 318.92773 C 513.23559 318.86379 514.55987 318.93966 515.73438 319.15625 C 518.15156 319.57618 519.62262 321.14429 520.15039 323.85938 C 520.66426 326.50299 520.41447 328.66484 519.39648 330.3457 C 518.3646 331.95511 516.80582 333.22215 514.7207 334.14648 C 512.6899 334.98613 510.34526 335.66464 507.68555 336.18164 L 497.14844 338.22852 L 497.27539 321.41016 L 506.89062 319.54102 C 508.66377 319.19635 510.28785 318.99168 511.76172 318.92773 z M 409.64844 323.64844 L 374.35547 330.50977 L 374.2793 344.31641 L 383.69141 342.48633 L 383.23242 389.29102 L 373.82422 391.11914 L 373.74609 404.92773 L 408.93555 398.08594 L 409.11523 384.25977 L 399.80469 386.06836 L 400.05859 339.30664 L 409.46875 337.47656 L 409.64844 323.64844 z M 352.06641 334.8418 L 333.19531 338.50977 L 331.51172 439.66016 L 554.79102 396.25977 L 555.02344 379.34766 L 350.33203 419.13672 L 352.06641 334.8418 z M 320.96094 340.88867 L 267.9707 351.18945 L 267.35938 425.60547 L 320.34961 415.30664 L 320.41992 399.83203 L 284.00195 406.91211 L 284.1582 391.86523 L 306.35547 387.55078 L 306.42578 372.07617 L 284.22852 376.39062 L 284.36914 363.46094 L 320.78711 356.38281 L 320.96094 340.88867 z M 190.05078 366.33398 L 171.33203 369.97266 L 144.94141 449.40234 L 163.9707 445.70312 L 168.24219 431.63672 L 194.32812 426.56641 L 198.44531 439.00195 L 215.32422 435.7207 L 190.05078 366.33398 z M 149.37305 378.01367 L 130.35742 381.71094 L 129.85938 405.91406 L 149.01367 402.19141 L 149.37305 378.01367 z M 117.68945 380.40039 L 96.980469 384.42578 L 95.480469 485.54102 L 321.35352 441.63477 L 321.63672 424.71289 L 115.95508 464.69336 L 117.68945 380.40039 z M 181.5625 386.56055 L 190.12695 413.14453 L 172.53125 416.56641 L 181.5625 386.56055 z " /><text
   xml:space="preserve"
   style="font-style:italic;font-variant:normal;font-weight:bold;font-stretch:normal;font-size:100px;font-family:'Atkinson Hyperlegible';-inkscape-font-specification:'Atkinson Hyperlegible, Bold Italic';font-variant-ligatures:normal;font-variant-caps:normal;font-variant-numeric:normal;font-variant-east-asian:normal;fill:#ffffff"
   x="327.32584"
   y="478.32501"
   id="text499"><tspan
     sodipodi:role="line"
     id="tspan497" /></text></svg>
